<?xml version="1.0" encoding="UTF-8"?>
<svg id="Ebene_1" xmlns="http://www.w3.org/2000/svg" version="1.1" viewBox="0 0 1662.2 217.15">
  <!-- Generator: Adobe Illustrator 29.5.1, SVG Export Plug-In . SVG Version: 2.1.0 Build 141)  -->
  <defs>
    <style>
      .st0 {
        fill: #fff;
      }
    </style>
  </defs>
  <path class="st0" d="M1606.42,80.32c0-6.2,2.96-10.25,8.35-10.25h1.89c5.94,0,8.9,4.05,8.9,10.25v8.13h-19.14v-8.13h0ZM1611.79,178.12h8.09c27.76,0,42.31-13.49,42.31-40.7v-4.96c0-9.7-6.74-15.64-18.34-15.64s-18.34,5.94-18.34,15.64v4.44c0,6.2-2.96,11.58-8.9,11.58h-1.89c-5.39,0-8.35-3.5-8.35-9.7v-28.73h32.89c14.84,0,22.91-8.09,22.91-22.91v-6.24c0-26.69-14.55-38.57-42.31-38.57h-8.09c-27.5,0-42.05,11.88-42.05,32.95v56.55c0,32.86,14.55,46.32,42.05,46.32M1530.61,176.25c11.86,0,18.86-6.2,18.86-16.18V23.98c0-9.97-7.01-16.18-18.86-16.18s-18.86,6.2-18.86,16.18v136.1c0,9.97,7.01,16.18,18.86,16.18M1444.43,148.47c-5.39,0-8.35-3.5-8.35-9.7v-61.42c2.44-3.24,6.2-5.39,9.7-5.39,5.66,0,8.9,4.31,8.9,12.14v54.68c0,6.2-2.96,9.7-8.64,9.7h-1.61ZM1441.45,178.12h7.81c27.5,0,42.05-13.49,42.05-40.7v-62.77c0-23.19-9.7-32.35-26.15-32.35-14.01,0-24.54,6.46-29.11,10.79v-29.39c0-9.7-6.74-15.9-18.34-15.9s-18.34,6.2-18.34,15.9v113.72c0,27.24,14.55,40.7,42.05,40.7M1312.61,178.12c14.29,0,24.54-7.55,29.11-12.66,1.35,8.09,7.81,12.66,18.34,12.66,11.59,0,18.34-5.94,18.34-15.9V58.48c0-9.97-6.74-16.18-18.34-16.18s-18.6,6.2-18.6,16.18v83.79c-2.44,3.77-5.94,6.2-9.97,6.2-5.39,0-8.9-4.05-8.9-12.14V58.46c0-9.97-6.74-16.18-18.34-16.18s-18.6,6.2-18.6,16.18v85.13c0,25.89,9.16,34.5,26.95,34.5M1216.73,148.47c-5.39,0-8.35-3.5-8.35-9.7v-56.57c0-6.2,2.96-10.25,8.35-10.25h1.61c5.66,0,8.64,4.05,8.64,10.25v56.57c0,6.2-2.96,9.7-8.64,9.7h-1.61ZM1213.77,178.12h7.81c27.76,0,42.05-13.49,42.05-40.7v-54.68c0-26.69-14.29-40.44-42.05-40.44h-7.81c-27.5,0-42.05,13.75-42.05,40.44v54.68c0,27.24,14.55,40.7,42.05,40.7M1083.83,176.25c11.59,0,18.34-6.2,18.34-16.18v-81.39c2.15-3.24,5.11-5.39,8.64-5.39,4.59,0,7.55,4.05,7.55,12.14v9.44c0,9.44,6.46,15.36,17.51,15.36s17.79-5.94,17.79-15.36v-18.34c0-25.61-8.35-34.24-25.61-34.24-12.94,0-22.38,7.29-26.41,11.86-1.61-7.55-8.09-11.86-17.79-11.86-11.86,0-18.6,6.2-18.6,16.18v101.6c0,9.97,6.74,16.18,18.6,16.18M1012.95,176.25c11.86,0,18.86-6.2,18.86-16.18V43.38h7.01c9.44,0,15.64-6.2,15.64-17.25s-6.2-17.25-15.64-17.25h-51.49c-9.16,0-15.64,6.2-15.64,17.25s6.46,17.25,15.64,17.25h7.01v116.7c0,9.97,7.01,16.18,18.6,16.18M854.7,177.24c11.86,0,18.6-4.59,22.1-7.81v6.2c0,8.64-7.29,13.49-21.84,13.49-3.77,0-6.2-.54-8.9-1.35-2.15-.81-3.77-1.61-6.2-1.61-5.66,0-9.44,4.85-9.44,11.05s2.15,11.31,7.29,14.29c5.39,3.24,12.94,5.66,29.39,5.66,27.5,0,45.01-12.66,45.01-44.75V58.24c0-9.7-6.74-15.9-18.34-15.9s-18.34,6.2-18.34,15.9v86.13c-1.89,2.15-4.31,3.24-7.29,3.24-7.01,0-11.31-5.11-11.31-15.9V58.24c0-9.97-6.74-15.9-18.34-15.9s-18.34,5.94-18.34,15.9v78.32c0,30.2,14.01,40.7,34.5,40.7M723.92,176.25c11.59,0,18.34-6.2,18.34-16.18v-81.65c2.15-3.24,5.66-5.66,9.7-5.66,5.66,0,9.16,4.05,9.16,12.14v75.19c0,9.97,6.74,16.18,18.6,16.18s18.34-6.2,18.34-16.18v-84.07c0-25.06-9.16-33.7-26.69-33.7-14.84,0-25.34,7.29-29.65,11.59-1.89-7.29-8.09-11.59-17.79-11.59-11.86,0-18.6,6.2-18.6,16.18v103.47c0,9.97,6.74,14.31,18.6,14.31M661.39,176.25c11.86,0,18.86-6.2,18.86-16.18V58.46c0-9.97-7.01-16.18-18.86-16.18s-18.6,6.2-18.6,16.18v101.6c0,9.97,6.74,16.18,18.6,16.18M661.39,33.42c12.4,0,19.41-5.66,19.41-16.71s-7.01-16.71-19.41-16.71-19.14,5.66-19.14,16.71,6.74,16.71,19.14,16.71M587.27,176.25c11.86,0,18.86-6.2,18.86-16.18V43.38h7.01c9.44,0,15.64-6.2,15.64-17.25s-6.2-17.25-15.64-17.25h-51.49c-9.16,0-15.64,6.2-15.64,17.25s6.46,17.25,15.64,17.25h7.01v116.7c0,9.97,7.01,16.18,18.6,16.18M431.18,136.35v-6.48c0-8.09,4.05-12.14,11.05-12.14,3.24,0,5.94.54,7.81,1.61v23.47c-2.15,3.24-5.94,5.66-9.7,5.66-5.66,0-9.16-4.05-9.16-12.14M422.28,176.25c13.75,0,23.71-7.29,28.04-12.66,1.09,7.81,7.55,12.66,17.79,12.66,11.86,0,18.34-5.94,18.34-13.77v-78.15c0-28.57-13.75-42.03-40.7-42.03h-7.81c-26.69,0-41.1,10.26-40.98,31.96.06,9.97,7.06,16.09,18.39,15.96,11.46-.13,17.21-5.51,16.56-12.59-.19-2,2.23-5.36,8.47-5.68h1.61c5.11,0,8.09,4.05,8.09,10.25v14.24c-3.5-1.61-9.16-3.24-17.51-3.24-21.56,0-38.01,11.31-38.01,35.05v14.31c0,24.26,11.59,33.7,27.76,33.7M312.07,176.25c11.59,0,18.34-6.2,18.34-16.18v-81.39c2.15-3.24,5.11-5.39,8.64-5.39,4.59,0,7.55,4.05,7.55,12.14v9.44c0,9.44,6.46,15.36,17.51,15.36s17.79-5.94,17.79-15.36v-18.34c0-25.61-8.35-34.24-25.61-34.24-12.94,0-22.38,7.29-26.41,11.86-1.61-7.55-8.09-11.86-17.79-11.86-11.86,0-18.6,6.2-18.6,16.18v101.6c0,9.97,6.74,16.18,18.6,16.18M247.5,176.25c15.36,0,23.19-5.39,23.19-19.14,0-7.29-3.24-11.59-8.9-11.59-.81,0-1.61.26-3.5.26-5.66,0-9.7-4.31-9.7-13.21v-59.55h11.59c7.81,0,12.66-5.39,12.66-14.55s-4.85-14.55-12.66-14.55h-11.59v-12.14c0-9.7-6.74-15.9-18.34-15.9s-18.34,6.2-18.34,15.9v12.14c-6.46,0-11.31,5.11-11.31,14.55,0,8.35,4.31,13.75,11.31,14.55v59.81c0,31.26,13.49,43.4,35.59,43.4M110.67,176.25c11.31,0,18.06-5.94,18.06-15.64v-16.05c0-8.35,2.15-12.94,8.09-17.25l1.61-1.09,2.7,1.61c5.94,4.05,8.09,8.64,8.09,16.71v16.05c0,9.7,6.74,15.64,18.34,15.64s18.06-5.94,18.06-15.64v-15.51c0-16.45-5.66-26.95-19.69-36.66,13.49-9.7,18.34-20.21,18.34-35.59v-14.91c0-9.7-6.46-15.64-18.06-15.64s-17.79,5.94-17.79,15.64v18.15c0,6.2-1.89,10.51-7.01,14.29l-1.61,1.35-2.7-1.89c-5.39-3.5-7.29-7.55-7.29-13.49v-18.41c0-9.7-6.74-15.64-18.06-15.64s-18.06,5.94-18.06,15.64v16c0,15.64,4.85,25.61,18.34,35.31-13.75,9.7-19.69,20.21-19.69,36.66v14.7c0,9.7,6.74,15.64,18.34,15.64M22.65,175.18h31.81c9.44,0,15.9-6.46,15.9-17.51s-6.46-17.51-15.9-17.51h-16.71v-31.45h14.29c8.35,0,14.29-5.94,14.29-15.9s-5.94-15.64-14.29-15.64h-14.29v-33.21h17.51c9.44,0,15.9-6.46,15.9-17.51s-6.46-17.51-15.9-17.51H22.65C8.09,8.92,0,17.01,0,31.56v121.01c0,14.55,8.09,22.65,22.65,22.65"/>
</svg>